<?xml version="1.0" standalone="no"?>
<!DOCTYPE svg PUBLIC "-//W3C//DTD SVG 20010904//EN"
 "http://www.w3.org/TR/2001/REC-SVG-20010904/DTD/svg10.dtd">
<svg version="1.0" xmlns="http://www.w3.org/2000/svg"
 width="512.000000pt" height="512.000000pt" viewBox="0 0 512.000000 512.000000"
 preserveAspectRatio="xMidYMid meet">
<metadata>
Created by potrace 1.14, written by Peter Selinger 2001-2017
</metadata>
<g transform="translate(0.000000,512.000000) scale(0.100000,-0.100000)"
fill="#000000" stroke="none">
<path d="M1225 4909 c-41 -22 -396 -219 -450 -249 -16 -10 -140 -79 -275 -155
-135 -75 -251 -142 -259 -149 -8 -6 -22 -29 -32 -52 -17 -38 -18 -83 -18 -644
0 -568 1 -605 19 -639 10 -20 27 -43 37 -51 21 -16 26 -19 118 -70 33 -18 204
-114 380 -213 176 -99 345 -193 375 -210 30 -16 70 -39 89 -50 22 -13 53 -21
85 -21 44 -1 65 7 151 55 55 31 116 65 135 76 231 129 330 183 337 183 5 0 29
-13 54 -29 43 -27 309 -190 394 -241 202 -121 535 -326 535 -331 0 -3 -26 -12
-57 -19 -101 -22 -123 -40 -123 -100 0 -33 40 -70 74 -70 11 0 57 10 101 21
44 11 88 22 98 25 45 11 63 15 72 18 6 2 27 6 48 11 66 13 90 66 66 145 -5 19
-12 44 -14 55 -27 124 -61 234 -78 253 -12 13 -32 22 -49 22 -74 0 -95 -46
-68 -149 10 -39 16 -71 14 -71 -4 0 -286 171 -469 285 -60 37 -123 76 -140 85
-76 45 -279 170 -287 178 -5 5 49 41 120 80 128 72 158 95 182 141 10 19 13
164 13 636 0 531 -2 614 -16 640 -20 39 -50 66 -112 100 -27 15 -160 89 -295
165 -135 75 -267 150 -295 165 -27 15 -114 64 -193 108 -164 91 -203 101 -267
66z m230 -227 c39 -22 93 -52 120 -67 28 -16 84 -47 125 -70 91 -51 128 -72
295 -165 185 -104 175 -90 97 -133 -109 -60 -499 -278 -701 -393 -88 -50 -97
-53 -117 -39 -12 8 -46 27 -76 43 -29 16 -143 80 -253 142 -230 129 -241 135
-393 220 -62 34 -110 66 -105 70 4 5 26 18 48 30 22 13 60 34 85 48 25 14 135
75 245 137 110 61 232 129 270 150 39 21 79 44 90 50 11 7 42 24 69 38 l49 26
41 -23 c23 -13 73 -42 111 -64z m-885 -654 c69 -38 139 -78 157 -88 17 -10 67
-37 110 -61 43 -23 83 -45 88 -49 10 -8 66 -39 175 -98 36 -20 77 -44 92 -54
l27 -18 0 -526 c0 -413 -3 -525 -13 -521 -10 4 -464 258 -596 334 -34 19 -164
91 -225 124 l-30 16 -3 533 -2 532 47 -27 c27 -15 104 -58 173 -97z m1674
-414 c0 -329 -4 -529 -10 -531 -11 -4 -520 -287 -544 -303 -8 -6 -24 -14 -35
-19 -11 -5 -76 -41 -145 -80 -68 -39 -127 -71 -130 -71 -3 0 -5 236 -4 525 0
509 1 526 20 539 10 7 100 58 199 113 211 118 215 120 455 255 102 58 187 104
190 102 3 -1 5 -240 4 -530z"/>
<path d="M1235 4556 c-219 -123 -372 -210 -384 -219 -50 -41 -18 -137 47 -137
21 0 143 62 317 162 17 10 56 32 88 50 63 34 82 63 72 109 -7 32 -44 59 -77
58 -13 -1 -41 -11 -63 -23z"/>
<path d="M532 3797 c-21 -23 -22 -31 -23 -268 0 -134 0 -263 1 -287 0 -82 79
-121 130 -67 l24 26 1 281 c0 250 -1 283 -17 309 -15 24 -24 29 -56 29 -27 0
-45 -7 -60 -23z"/>
<path d="M4401 2864 c-29 -12 -94 -56 -304 -202 -117 -81 -117 -82 -114 -350
2 -263 -7 -241 153 -354 60 -42 138 -97 174 -123 75 -53 124 -70 172 -61 21 4
109 58 219 134 240 166 229 146 229 416 0 266 8 250 -198 394 -86 60 -173 119
-194 131 -45 27 -95 33 -137 15z m257 -288 c23 -16 42 -33 42 -37 0 -4 -55
-46 -122 -92 l-122 -85 -127 86 c-78 54 -124 91 -118 96 5 6 62 47 126 92
l118 82 80 -56 c44 -31 99 -70 123 -86z m-425 -253 c46 -32 96 -68 112 -79
l29 -22 1 -116 c1 -64 -1 -116 -3 -116 -2 0 -55 35 -118 78 l-113 77 -1 118
c0 64 2 117 5 117 2 0 42 -26 88 -57z m535 -60 l-3 -117 -110 -78 c-60 -42
-113 -77 -116 -78 -3 0 -6 52 -5 116 l1 117 110 78 c61 43 114 78 118 79 4 0
6 -53 5 -117z"/>
<path d="M3631 2082 c-29 -5 -42 -13 -238 -150 -89 -63 -170 -126 -180 -140
-16 -24 -18 -54 -21 -247 -3 -283 -18 -257 227 -427 105 -73 198 -130 217
-134 55 -10 88 4 211 89 65 45 145 100 177 122 32 22 70 55 85 74 26 34 26 35
29 247 5 287 15 265 -203 417 -217 152 -234 161 -304 149z m283 -334 c-3 -4
-24 -20 -47 -36 -23 -16 -78 -54 -122 -84 -80 -56 -81 -56 -105 -39 -14 10
-71 50 -128 90 l-103 73 128 88 128 87 126 -86 c70 -47 125 -89 123 -93z
m-439 -236 l110 -77 1 -113 c0 -62 -2 -115 -5 -117 -3 -1 -55 32 -116 74
l-110 77 -3 117 c-1 64 1 117 5 117 4 0 58 -35 118 -78z m503 -39 l-3 -117
-110 -77 c-60 -42 -112 -75 -115 -74 -3 2 -5 54 -5 116 l0 113 110 78 c61 42
114 77 118 78 4 0 6 -53 5 -117z"/>
<path d="M2830 1290 c-14 -4 -68 -37 -120 -73 -52 -37 -135 -95 -184 -129
-125 -87 -125 -88 -123 -353 2 -178 5 -215 20 -242 22 -41 364 -282 420 -296
26 -7 50 -6 72 1 48 14 381 249 408 286 21 30 22 40 22 261 0 220 -1 231 -22
260 -16 24 -303 233 -380 279 -19 11 -85 14 -113 6z m182 -245 c108 -76 116
-83 100 -97 -9 -8 -67 -49 -127 -90 l-110 -76 -120 85 c-66 46 -120 89 -120
94 0 15 238 178 249 171 6 -3 63 -42 128 -87z m-228 -388 c12 -4 18 -235 7
-241 -3 -2 -55 31 -116 74 l-110 77 -3 121 -3 122 108 -75 c58 -41 111 -76
117 -78z m406 25 l0 -118 -31 -18 c-17 -10 -67 -45 -112 -77 -45 -32 -84 -59
-87 -59 -3 0 -6 53 -5 117 l1 118 109 77 c61 42 113 77 118 78 4 0 7 -53 7
-118z"/>
</g>
</svg>
